<svg width="27" height="21" viewBox="0 0 27 21" fill="none" xmlns="http://www.w3.org/2000/svg">
<path d="M22.8566 1.74079C21.1358 0.935051 19.2904 0.341422 17.3609 0.00142624C17.3257 -0.00513558 17.2906 0.0112628 17.2725 0.0440602C17.0352 0.474793 16.7723 1.03672 16.5882 1.47839C14.513 1.16136 12.4483 1.16136 10.4156 1.47839C10.2315 1.0269 9.95905 0.474793 9.72065 0.0440602C9.70255 0.012357 9.66744 -0.0040413 9.63231 0.00142624C7.7039 0.340336 5.85851 0.933965 4.13655 1.74079C4.12164 1.74734 4.10887 1.75829 4.10039 1.77249C0.600066 7.10863 -0.358819 12.3136 0.111578 17.4541C0.113706 17.4792 0.127541 17.5033 0.146698 17.5186C2.45611 19.2492 4.69317 20.2998 6.88869 20.9962C6.92383 21.0071 6.96106 20.994 6.98342 20.9645C7.50277 20.2408 7.96572 19.4777 8.36266 18.6752C8.38609 18.6282 8.36373 18.5725 8.31585 18.5539C7.58152 18.2696 6.8823 17.9231 6.2097 17.5295C6.15649 17.4978 6.15224 17.4202 6.20118 17.383C6.34272 17.2748 6.4843 17.1621 6.61945 17.0484C6.6439 17.0277 6.67797 17.0233 6.70672 17.0364C11.1254 19.095 15.9092 19.095 20.2758 17.0364C20.3046 17.0222 20.3386 17.0266 20.3642 17.0474C20.4994 17.1611 20.6409 17.2748 20.7835 17.383C20.8324 17.4202 20.8292 17.4978 20.776 17.5295C20.1034 17.9307 19.4042 18.2696 18.6688 18.5528C18.6209 18.5714 18.5997 18.6282 18.6231 18.6752C19.0285 19.4766 19.4915 20.2396 20.0013 20.9634C20.0226 20.994 20.0608 21.0071 20.096 20.9962C22.3022 20.2998 24.5392 19.2492 26.8486 17.5186C26.8688 17.5033 26.8816 17.4803 26.8837 17.4552C27.4467 11.5122 25.9408 6.34993 22.8917 1.77357C22.8843 1.75829 22.8715 1.74734 22.8566 1.74079ZM9.02253 14.3241C7.69219 14.3241 6.59602 13.0778 6.59602 11.5472C6.59602 10.0167 7.67093 8.77039 9.02253 8.77039C10.3847 8.77039 11.4703 10.0276 11.449 11.5472C11.449 13.0778 10.3741 14.3241 9.02253 14.3241ZM17.9941 14.3241C16.6638 14.3241 15.5676 13.0778 15.5676 11.5472C15.5676 10.0167 16.6425 8.77039 17.9941 8.77039C19.3563 8.77039 20.4419 10.0276 20.4206 11.5472C20.4206 13.0778 19.3563 14.3241 17.9941 14.3241Z" fill="white"/>
</svg>
