<svg width="20" height="20" viewBox="0 0 20 20" fill="none" xmlns="http://www.w3.org/2000/svg">
<g clip-path="url(#clip0_11_46)">
<path d="M4.07106 16.4454L5.83883 14.6777L4.07106 12.9099L5.83883 11.1421L4.07106 9.37437L5.83883 7.6066L4.07106 5.83884L5.83883 4.07107L7.6066 5.83884L9.37436 4.07107L11.1421 5.83884L12.9099 4.07107L14.6777 5.83884L16.4454 4.07107L14.6777 2.3033L12.9099 4.07107L11.1421 2.3033L9.37436 4.07107L7.6066 2.3033L5.83883 4.07107L4.07106 2.3033L2.3033 4.07107L4.07106 5.83884L2.3033 7.6066L4.07106 9.37437L2.3033 11.1421L4.07106 12.9099L2.3033 14.6777L4.07106 16.4454Z" fill="white"/>
<path d="M16.4454 4.07107L14.6777 5.83884L16.4454 7.6066L18.2132 5.83884L16.4454 4.07107Z" fill="white"/>
<path d="M4.07106 16.4454L5.83883 14.6777L7.6066 16.4454L5.83883 18.2132L4.07106 16.4454Z" fill="white"/>
<path d="M7.6066 16.4454L9.37437 14.6777L11.1421 16.4454L9.37437 18.2132L7.6066 16.4454Z" fill="white"/>
<path d="M14.6777 16.4454L12.9099 18.2132L11.1421 16.4454L12.9099 14.6777L14.6777 16.4454Z" fill="white"/>
<path d="M16.4454 14.6777L18.2132 16.4454L16.4454 18.2132L14.6777 16.4454L16.4454 14.6777Z" fill="white"/>
<path d="M16.4454 11.1421L14.6777 12.9099L16.4454 14.6777L18.2132 12.9099L16.4454 11.1421Z" fill="white"/>
<path d="M16.4454 11.1421L14.6777 9.37437L16.4454 7.6066L18.2132 9.37437L16.4454 11.1421Z" fill="white"/>
</g>
<defs>
<clipPath id="clip0_11_46">
<rect width="20" height="20" fill="white"/>
</clipPath>
</defs>
</svg>
