<svg width="1016" height="96" viewBox="0 0 1016 96" fill="none" xmlns="http://www.w3.org/2000/svg">
<path d="M1016 96C987.781 96 987.78 82.6988 959.556 82.6988C931.332 82.6988 931.337 96 903.117 96C874.898 96 874.893 0 846.669 0C818.445 0 818.45 96 790.225 96C762.001 96 762.006 41.6736 733.782 41.6736C705.557 41.6736 705.562 96 677.338 96C649.114 96 649.118 0 620.894 0C592.67 0 592.675 96 564.451 96C536.226 96 536.226 61.6517 508.007 61.6517C479.788 61.6517 479.783 96 451.563 96C423.344 96 423.339 80.2278 395.12 80.2278C366.9 80.2278 366.896 96 338.676 96C310.457 96 310.452 27.3034 282.232 27.3034C254.013 27.3034 254.008 96 225.784 96C197.56 96 197.565 0 169.34 0C141.116 0 141.116 96 112.897 96C84.6772 96 84.6725 12.9332 56.4484 12.9332C28.2242 12.9332 28.2242 96 0 96" fill="white"/>
</svg>
